# Blender v2.78 (sub 0) OBJ File: 'LWJGL_DrivinPhysics.blend'
# www.blender.org
o Plane.001_Plane.004
v -250.000000 -0.000000 500.000000
v -500.000000 -0.000000 500.000000
v 500.000000 -0.000000 500.000000
v -500.000000 -0.000000 -500.000000
v 500.000000 -0.000000 -500.000000
v -250.000000 -0.000000 -500.000000
v 25.000000 -0.000000 -500.000000
v 250.000000 -0.000000 -500.000000
v 250.000000 -0.000000 500.000000
v 25.000000 -0.000000 500.000000
v 250.000000 -0.000000 500.000000
v 250.000000 -0.000000 -500.000000
v 25.000000 -0.000000 500.000000
v 25.000000 -0.000000 -500.000000
v -250.000000 -0.000000 500.000000
v -250.000000 -0.000000 -500.000000
vt 0.3379 0.9364
vt 0.2970 0.9283
vt 0.3379 0.9283
vt 0.4623 0.8193
vt 0.4243 0.8040
vt 0.4623 0.8040
vt 0.0830 0.8094
vt 0.0492 0.8162
vt 0.0492 0.8094
vt 0.0368 0.6808
vt 0.0948 0.6924
vt 0.0368 0.6924
vt 0.2970 0.9364
vt 0.4243 0.8193
vt 0.0830 0.8162
vt 0.0948 0.6808
vn -0.0000 1.0000 0.0000
s off
f 16/1/1 13/2/1 14/3/1
f 4/4/1 15/5/1 6/6/1
f 5/7/1 11/8/1 3/9/1
f 9/10/1 7/11/1 10/12/1
f 16/1/1 1/13/1 13/2/1
f 4/4/1 2/14/1 15/5/1
f 5/7/1 12/15/1 11/8/1
f 9/10/1 8/16/1 7/11/1
